<svg width="351" height="230" viewBox="0 0 351 230" fill="none" xmlns="http://www.w3.org/2000/svg">
<g filter="url(#filter0_d_1015_53)">
<rect width="311" height="190" transform="translate(20 16)" fill="white"/>
<path d="M326.728 16H23.4176C21.5301 16 20 17.7099 20 19.8191V202.181C20 204.29 21.5301 206 23.4176 206H326.728C328.615 206 330.146 204.29 330.146 202.181V19.8191C330.146 17.7099 328.615 16 326.728 16Z" fill="#57084E"/>
<mask id="mask0_1015_53" style="mask-type:alpha" maskUnits="userSpaceOnUse" x="20" y="16" width="311" height="190">
<path d="M325.019 16H25.1264C22.2952 16 20 18.5648 20 21.7286V200.271C20 203.435 22.2952 206 25.1264 206H325.019C327.85 206 330.146 203.435 330.146 200.271V21.7286C330.146 18.5648 327.85 16 325.019 16Z" fill="#6848E7"/>
</mask>
<g mask="url(#mask0_1015_53)">
<path d="M47.9348 62.2307L330.171 144.73V200.273H47.9348V62.2307Z" fill="black" fill-opacity="0.1"/>
<path d="M330.171 34.1262H216.654V199.446H330.171V34.1262Z" fill="black" fill-opacity="0.07"/>
<path d="M225.596 206C238.662 206 249.254 194.739 249.254 180.848C249.254 166.956 238.662 155.695 225.596 155.695C212.53 155.695 201.937 166.956 201.937 180.848C201.937 194.739 212.53 206 225.596 206Z" stroke="#C89797" stroke-opacity="0.17" stroke-width="8.14286"/>
<path d="M188.275 88.6524C195.775 88.6524 201.854 82.1892 201.854 74.2164C201.854 66.2436 195.775 59.7804 188.275 59.7804C180.776 59.7804 174.697 66.2436 174.697 74.2164C174.697 82.1892 180.776 88.6524 188.275 88.6524Z" stroke="#C89797" stroke-opacity="0.07" stroke-width="4.07143"/>
<path d="M107.803 80.2328C108.996 80.2328 109.963 79.2045 109.963 77.936C109.963 76.6676 108.996 75.6393 107.803 75.6393C106.61 75.6393 105.643 76.6676 105.643 77.936C105.643 79.2045 106.61 80.2328 107.803 80.2328Z" stroke="#C89797" stroke-opacity="0.14" stroke-width="2.44286"/>
<path d="M107.803 80.2328C108.996 80.2328 109.963 79.2045 109.963 77.936C109.963 76.6676 108.996 75.6393 107.803 75.6393C106.61 75.6393 105.643 76.6676 105.643 77.936C105.643 79.2045 106.61 80.2328 107.803 80.2328Z" stroke="#C89797" stroke-opacity="0.14" stroke-width="2.44286"/>
<path d="M236.869 54.6082C238.063 54.6082 239.03 53.5799 239.03 52.3114C239.03 51.0429 238.063 50.0146 236.869 50.0146C235.676 50.0146 234.709 51.0429 234.709 52.3114C234.709 53.5799 235.676 54.6082 236.869 54.6082Z" stroke="#C89797" stroke-opacity="0.14" stroke-width="2.44286"/>
<path d="M236.869 54.6082C238.063 54.6082 239.03 53.5799 239.03 52.3114C239.03 51.0429 238.063 50.0146 236.869 50.0146C235.676 50.0146 234.709 51.0429 234.709 52.3114C234.709 53.5799 235.676 54.6082 236.869 54.6082Z" stroke="#C89797" stroke-opacity="0.14" stroke-width="2.44286"/>
<path d="M80.59 170.332C81.7832 170.332 82.7504 169.304 82.7504 168.035C82.7504 166.767 81.7832 165.739 80.59 165.739C79.3969 165.739 78.4297 166.767 78.4297 168.035C78.4297 169.304 79.3969 170.332 80.59 170.332Z" stroke="#C89797" stroke-opacity="0.14" stroke-width="2.44286"/>
<path d="M80.59 170.332C81.7832 170.332 82.7504 169.304 82.7504 168.035C82.7504 166.767 81.7832 165.739 80.59 165.739C79.3969 165.739 78.4297 166.767 78.4297 168.035C78.4297 169.304 79.3969 170.332 80.59 170.332Z" stroke="#C89797" stroke-opacity="0.14" stroke-width="2.44286"/>
<path d="M232.204 126.522C233.398 126.522 234.365 125.494 234.365 124.225C234.365 122.957 233.398 121.929 232.204 121.929C231.011 121.929 230.044 122.957 230.044 124.225C230.044 125.494 231.011 126.522 232.204 126.522Z" stroke="#C89797" stroke-opacity="0.14" stroke-width="2.44286"/>
<path d="M232.204 126.522C233.398 126.522 234.365 125.494 234.365 124.225C234.365 122.957 233.398 121.929 232.204 121.929C231.011 121.929 230.044 122.957 230.044 124.225C230.044 125.494 231.011 126.522 232.204 126.522Z" stroke="#C89797" stroke-opacity="0.14" stroke-width="2.44286"/>
<path d="M288.574 66.3046C301.64 66.3046 312.232 55.0435 312.232 41.1523C312.232 27.2611 301.64 16 288.574 16C275.508 16 264.915 27.2611 264.915 41.1523C264.915 55.0435 275.508 66.3046 288.574 66.3046Z" stroke="#C89797" stroke-opacity="0.17" stroke-width="8.14286"/>
<path d="M43.6585 134.086C56.7247 134.086 67.317 122.825 67.317 108.934C67.317 95.0423 56.7247 83.7812 43.6585 83.7812C30.5923 83.7812 20 95.0423 20 108.934C20 122.825 30.5923 134.086 43.6585 134.086Z" stroke="#C89797" stroke-opacity="0.1" stroke-width="8.14286"/>
<path fill-rule="evenodd" clip-rule="evenodd" d="M47.5 63C56.6127 63 64 55.6127 64 46.5C64 37.3873 56.6127 30 47.5 30C38.3873 30 31 37.3873 31 46.5C31 55.6127 38.3873 63 47.5 63ZM47.5 59.8269C54.8603 59.8269 60.8269 53.8603 60.8269 46.5C60.8269 39.1398 54.8603 33.1731 47.5 33.1731C40.1398 33.1731 34.1731 39.1398 34.1731 46.5C34.1731 53.8603 40.1398 59.8269 47.5 59.8269Z" fill="#F98C28"/>
<path fill-rule="evenodd" clip-rule="evenodd" d="M296.5 60C305.613 60 313 52.6127 313 43.5C313 34.3873 305.613 27 296.5 27C287.387 27 280 34.3873 280 43.5C280 52.6127 287.387 60 296.5 60ZM296.5 56.8269C303.86 56.8269 309.827 50.8603 309.827 43.5C309.827 36.1398 303.86 30.1731 296.5 30.1731C289.14 30.1731 283.173 36.1398 283.173 43.5C283.173 50.8603 289.14 56.8269 296.5 56.8269Z" fill="#FF3501"/>
<path fill-rule="evenodd" clip-rule="evenodd" d="M102.5 158C111.613 158 119 150.613 119 141.5C119 132.387 111.613 125 102.5 125C93.3873 125 86 132.387 86 141.5C86 150.613 93.3873 158 102.5 158ZM102.5 154.827C109.86 154.827 115.827 148.86 115.827 141.5C115.827 134.14 109.86 128.173 102.5 128.173C95.1398 128.173 89.1731 134.14 89.1731 141.5C89.1731 148.86 95.1398 154.827 102.5 154.827Z" fill="#FF3501"/>
<path fill-rule="evenodd" clip-rule="evenodd" d="M20.5 214C29.6127 214 37 206.613 37 197.5C37 188.387 29.6127 181 20.5 181C11.3873 181 4 188.387 4 197.5C4 206.613 11.3873 214 20.5 214ZM20.5 210.827C27.8603 210.827 33.8269 204.86 33.8269 197.5C33.8269 190.14 27.8603 184.173 20.5 184.173C13.1398 184.173 7.1731 190.14 7.1731 197.5C7.1731 204.86 13.1398 210.827 20.5 210.827Z" fill="#FF3501"/>
<path fill-rule="evenodd" clip-rule="evenodd" d="M271 68C276.523 68 281 63.5228 281 58C281 52.4772 276.523 48 271 48C265.477 48 261 52.4772 261 58C261 63.5228 265.477 68 271 68ZM271 66.0769C275.461 66.0769 279.077 62.4608 279.077 58C279.077 53.5392 275.461 49.9231 271 49.9231C266.539 49.9231 262.923 53.5392 262.923 58C262.923 62.4608 266.539 66.0769 271 66.0769Z" fill="#F98C28"/>
<path fill-rule="evenodd" clip-rule="evenodd" d="M52 183C57.5228 183 62 178.523 62 173C62 167.477 57.5228 163 52 163C46.4772 163 42 167.477 42 173C42 178.523 46.4772 183 52 183ZM52 181.077C56.4608 181.077 60.0769 177.461 60.0769 173C60.0769 168.539 56.4608 164.923 52 164.923C47.5393 164.923 43.9231 168.539 43.9231 173C43.9231 177.461 47.5393 181.077 52 181.077Z" fill="#F98C28"/>
</g>
</g>
<defs>
<filter id="filter0_d_1015_53" x="0" y="0" width="351" height="230" filterUnits="userSpaceOnUse" color-interpolation-filters="sRGB">
<feFlood flood-opacity="0" result="BackgroundImageFix"/>
<feColorMatrix in="SourceAlpha" type="matrix" values="0 0 0 0 0 0 0 0 0 0 0 0 0 0 0 0 0 0 127 0" result="hardAlpha"/>
<feOffset dy="4"/>
<feGaussianBlur stdDeviation="10"/>
<feComposite in2="hardAlpha" operator="out"/>
<feColorMatrix type="matrix" values="0 0 0 0 0 0 0 0 0 0 0 0 0 0 0 0 0 0 0.25 0"/>
<feBlend mode="normal" in2="BackgroundImageFix" result="effect1_dropShadow_1015_53"/>
<feBlend mode="normal" in="SourceGraphic" in2="effect1_dropShadow_1015_53" result="shape"/>
</filter>
</defs>
</svg>
