<svg width="748" height="647" viewBox="0 0 748 647" fill="none" xmlns="http://www.w3.org/2000/svg">
<path d="M0 107.292L747.94 431.783V650.251H0V107.292Z" fill="black" fill-opacity="0.1"/>
<path d="M747.939 -3.25122H447.115V647H747.939V-3.25122Z" fill="black" fill-opacity="0.07"/>
<path d="M470.811 672.778C505.437 672.778 533.507 628.485 533.507 573.847C533.507 519.208 505.437 474.915 470.811 474.915C436.184 474.915 408.114 519.208 408.114 573.847C408.114 628.485 436.184 672.778 470.811 672.778Z" stroke="#C89797" stroke-opacity="0.17" stroke-width="8.14286"/>
<path d="M371.909 211.216C391.783 211.216 407.894 185.794 407.894 154.435C407.894 123.075 391.783 97.6538 371.909 97.6538C352.036 97.6538 335.925 123.075 335.925 154.435C335.925 185.794 352.036 211.216 371.909 211.216Z" stroke="#C89797" stroke-opacity="0.07" stroke-width="4.07143"/>
<path d="M158.654 178.099C161.816 178.099 164.379 174.055 164.379 169.066C164.379 164.076 161.816 160.032 158.654 160.032C155.492 160.032 152.929 164.076 152.929 169.066C152.929 174.055 155.492 178.099 158.654 178.099Z" stroke="#C89797" stroke-opacity="0.14" stroke-width="2.44286"/>
<path d="M158.654 178.099C161.816 178.099 164.379 174.055 164.379 169.066C164.379 164.076 161.816 160.032 158.654 160.032C155.492 160.032 152.929 164.076 152.929 169.066C152.929 174.055 155.492 178.099 158.654 178.099Z" stroke="#C89797" stroke-opacity="0.14" stroke-width="2.44286"/>
<path d="M500.686 77.3104C503.848 77.3104 506.412 73.2658 506.412 68.2765C506.412 63.2873 503.848 59.2427 500.686 59.2427C497.525 59.2427 494.961 63.2873 494.961 68.2765C494.961 73.2658 497.525 77.3104 500.686 77.3104Z" stroke="#C89797" stroke-opacity="0.14" stroke-width="2.44286"/>
<path d="M500.686 77.3104C503.848 77.3104 506.412 73.2658 506.412 68.2765C506.412 63.2873 503.848 59.2427 500.686 59.2427C497.525 59.2427 494.961 63.2873 494.961 68.2765C494.961 73.2658 497.525 77.3104 500.686 77.3104Z" stroke="#C89797" stroke-opacity="0.14" stroke-width="2.44286"/>
<path d="M86.5381 532.486C89.6999 532.486 92.2631 528.442 92.2631 523.452C92.2631 518.463 89.6999 514.418 86.5381 514.418C83.3762 514.418 80.813 518.463 80.813 523.452C80.813 528.442 83.3762 532.486 86.5381 532.486Z" stroke="#C89797" stroke-opacity="0.14" stroke-width="2.44286"/>
<path d="M86.5381 532.486C89.6999 532.486 92.2631 528.442 92.2631 523.452C92.2631 518.463 89.6999 514.418 86.5381 514.418C83.3762 514.418 80.813 518.463 80.813 523.452C80.813 528.442 83.3762 532.486 86.5381 532.486Z" stroke="#C89797" stroke-opacity="0.14" stroke-width="2.44286"/>
<path d="M488.324 360.169C491.486 360.169 494.049 356.124 494.049 351.135C494.049 346.146 491.486 342.101 488.324 342.101C485.162 342.101 482.599 346.146 482.599 351.135C482.599 356.124 485.162 360.169 488.324 360.169Z" stroke="#C89797" stroke-opacity="0.14" stroke-width="2.44286"/>
<path d="M488.324 360.169C491.486 360.169 494.049 356.124 494.049 351.135C494.049 346.146 491.486 342.101 488.324 342.101C485.162 342.101 482.599 346.146 482.599 351.135C482.599 356.124 485.162 360.169 488.324 360.169Z" stroke="#C89797" stroke-opacity="0.14" stroke-width="2.44286"/>
<path d="M637.706 123.315C672.332 123.315 700.402 79.0225 700.402 24.3843C700.402 -30.2539 672.332 -74.5469 637.706 -74.5469C603.08 -74.5469 575.01 -30.2539 575.01 24.3843C575.01 79.0225 603.08 123.315 637.706 123.315Z" stroke="#C89797" stroke-opacity="0.17" stroke-width="8.14286"/>
<path d="M-11.3325 389.918C23.2937 389.918 51.3638 345.626 51.3638 290.987C51.3638 236.349 23.2937 192.056 -11.3325 192.056C-45.9587 192.056 -74.0288 236.349 -74.0288 290.987C-74.0288 345.626 -45.9587 389.918 -11.3325 389.918Z" stroke="#C89797" stroke-opacity="0.1" stroke-width="8.14286"/>
</svg>
